<?xml version="1.0" encoding="UTF-8" standalone="no"?>
<!-- Created with Inkscape (http://www.inkscape.org/) -->

<svg
   xmlns:dc="http://purl.org/dc/elements/1.1/"
   xmlns:cc="http://creativecommons.org/ns#"
   xmlns:rdf="http://www.w3.org/1999/02/22-rdf-syntax-ns#"
   xmlns:svg="http://www.w3.org/2000/svg"
   xmlns="http://www.w3.org/2000/svg"
   xmlns:sodipodi="http://sodipodi.sourceforge.net/DTD/sodipodi-0.dtd"
   xmlns:inkscape="http://www.inkscape.org/namespaces/inkscape"
   width="242.04045"
   height="87.363243"
   id="svg11432"
   version="1.1"
   inkscape:version="0.48.4 r9939"
   sodipodi:docname="logo.svg">
  <title
     id="title2983">Jappix logo</title>
  <defs
     id="defs11434" />
  <sodipodi:namedview
     id="base"
     pagecolor="#ffffff"
     bordercolor="#666666"
     borderopacity="1.0"
     inkscape:pageopacity="0.0"
     inkscape:pageshadow="2"
     inkscape:zoom="1.3873626"
     inkscape:cx="240.01925"
     inkscape:cy="38.741844"
     inkscape:current-layer="layer1"
     showgrid="true"
     inkscape:grid-bbox="true"
     inkscape:document-units="px"
     fit-margin-top="0"
     fit-margin-left="0"
     fit-margin-right="0"
     fit-margin-bottom="0"
     inkscape:window-width="1280"
     inkscape:window-height="746"
     inkscape:window-x="0"
     inkscape:window-y="25"
     inkscape:window-maximized="1" />
  <metadata
     id="metadata11437">
    <rdf:RDF>
      <cc:Work
         rdf:about="">
        <dc:format>image/svg+xml</dc:format>
        <dc:type
           rdf:resource="http://purl.org/dc/dcmitype/StillImage" />
        <dc:title>Jappix logo</dc:title>
        <dc:date>2011</dc:date>
        <dc:creator>
          <cc:Agent>
            <dc:title>Julien Barrier</dc:title>
          </cc:Agent>
        </dc:creator>
        <dc:rights>
          <cc:Agent>
            <dc:title>cf INPI</dc:title>
          </cc:Agent>
        </dc:rights>
        <dc:contributor>
          <cc:Agent>
            <dc:title>Valérian Saliou</dc:title>
          </cc:Agent>
        </dc:contributor>
        <cc:license
           rdf:resource="http://artlibre.org/licence/lal" />
      </cc:Work>
      <cc:License
         rdf:about="http://artlibre.org/licence/lal">
        <cc:permits
           rdf:resource="http://creativecommons.org/ns#Reproduction" />
        <cc:permits
           rdf:resource="http://creativecommons.org/ns#Distribution" />
        <cc:permits
           rdf:resource="http://creativecommons.org/ns#DerivativeWorks" />
        <cc:requires
           rdf:resource="http://creativecommons.org/ns#ShareAlike" />
        <cc:requires
           rdf:resource="http://creativecommons.org/ns#Notice" />
        <cc:requires
           rdf:resource="http://creativecommons.org/ns#Attribution" />
      </cc:License>
    </rdf:RDF>
  </metadata>
  <g
     id="layer1"
     inkscape:label="Layer 1"
     inkscape:groupmode="layer"
     transform="translate(106.60439,35.430136)">
    <path
       style="fill:#ffffff;fill-opacity:1;stroke:none"
       d="m -45.438937,-35.429803 c -0.3753,-0.003 -0.749,0.0148 -1.125,0.0312 -4.6798,0.20447 -9.3533,1.94085 -12.8438,4.9375 -7.0482,4.59258 -8.6618,13.26639 -9.5,20.9999998 -0.2431,6.00625 -6.1667,12.58544 -12.3437,9.09374996 -2.4627,-4.73774996 -1.4568,-11.03941976 -5.4375,-15.24999976 -5.0555,-7.45221 -18.609403,-4.4633 -19.781303,4.53125 -1.1422,7.2664098 5.191,13.5576498 12.093803,14.4687498 5.7937,1.44546 7.5733,8.4478502 5.5312,13.4687502 -2.429,6.48033 -11.761103,4.10629 -14.437503,10.4375 -2.0738,5.63477 4.451203,11.28483 9.687503,11.6875 7.0159,2.00003 11.3068,-3.79553 11.1875,-10.1875 2.7679,-6.45902 12.4198,-1.22994 12.3125,4.65625 -0.2882,6.84929 1.7898,14.32819 8.9375,16.9375 10.7946,3.73719 23.8725,1.25076 21.9375,-13.34375 -4.1304,-7.42855 -13.4882,-8.39303 -20.0937,-12.6875 -5.7466,-3.62519 -4.8321,-12.08476 -2.3438,-17.4062502 5.503,-7.56917004 16.1669,-6.53384004 23.3438,-11.65625 7.9749,-4.35124 12.2075,-15.2870698 7.1562,-23.3437498 -3.1786,-5.01763 -8.652,-7.32433 -14.2812,-7.375 z m 145.687507,17.21875 c -1.020703,6e-5 -2.028303,0.43451 -2.750003,1.15625 l -0.031,0.0312 c -0.6892,0.71928 -1.0938,1.69104 -1.0938,2.6875 0,1.00657 0.3976,2.02348 1.0938,2.75 l 0.031,0.0312 0.031,0.0312 c 0.7266,0.69643 1.7121,1.09381 2.718703,1.09375 1.0065,6e-5 2.0377,-0.4128 2.75,-1.125 l 0.031,-0.0312 c 0.6962,-0.72652 1.0625,-1.74343 1.0625,-2.75 0,-0.99657 -0.3977,-1.97496 -1.0937,-2.6875 -0.01,-0.006 -0.025,0.006 -0.031,0 -0.6987,-0.71858 -1.7164,-1.18744 -2.7188,-1.1875 z m -117.281307,0.0312 c -1.011,6e-5 -2.0354,0.44182 -2.75,1.15625 l 0,0.0312 c -0.6893,0.71935 -1.0937,1.69119 -1.0937,2.6875 0,1.00643 0.3974,2.02341 1.0937,2.75 l 0,0.0312 0.031,0.0312 c 0.7193,0.68928 1.7224,1.09381 2.7188,1.09375 0.9964,6e-5 1.9994,-0.40429 2.7187,-1.09375 l 0,-0.0312 c 0.7219,-0.72173 1.1563,-1.7606 1.1563,-2.78125 0,-1.01097 -0.4416,-2.00411 -1.1563,-2.71875 -0.7146,-0.71461 -1.7077,-1.15619 -2.7187,-1.15625 z M 4.0297667,-5.4298532 c -2.1203,3e-5 -4.17989999,0.5479 -6.0937,1.59375 -1.949,1.06521 -3.6092,2.67172 -4.937504,4.71874996 l -0.7813,1.18750004 1.218804,0.8125 2.125,1.40625 1.1562,0.78125 0.8125,-1.15625 c 0.8919,-1.26655 1.90230001,-2.18899 3.03130001,-2.8125 C 1.7338667,0.46326676 2.8627667,0.16391676 4.0297667,0.16389676 c 2.0268,3e-5 3.7221,0.77274 5.3438,2.50000004 1.2896003,1.35905 1.9420003,3.21307 2.2500003,5.4375 -0.6403,0.004 -1.3275,0.0181 -1.8125003,0.0312 -0.01,2.3e-4 -0.023,-2.3e-4 -0.031,0 -0.738,6.5e-4 -1.6868,0.0339 -2.9063,0.0937 -1.2384,0.0609 -2.2745,0.15345 -3.1562,0.28125 -0.01,10e-4 -0.023,-10e-4 -0.031,0 -0.8727,0.10753 -1.8617,0.28738 -2.99999999,0.53125 l 0,-0.0312 c -1.1776,0.23135 -2.18350001,0.53876 -3.06250001,0.90625 -0.01,0.003 -0.023,-0.003 -0.031,0 -0.819,0.3338002 -1.6649,0.7842002 -2.5313,1.3125002 l 0,-0.0312 c -0.9212,0.55279 -1.690504,1.22876 -2.312504,2 -0.5925,0.74067 -1.0735,1.61556 -1.4375,2.59375 l 0,0.0312 c -0.3585,1.02769 -0.5312,2.11986 -0.5312,3.28125 0,1.16672 0.2144,2.32128 0.6562,3.4375 l 0,0.0312 c 0.4461,1.1034 1.1021,2.11424 1.9375,3.0625 0.911104,1.03435 2.110304,1.85106 3.531304,2.4375 l 0.031,0 c 1.4722,0.57506 3.10710001,0.84375 4.875,0.84375 2.5189,0 4.9503,-0.75369 7.1562,-2.1875 1.1289003,-0.72657 2.1326003,-1.56922 3.0938003,-2.5 0.08,1.10683 0.1413,2.2183 0.4375,3.15625 l 0.3437,1.03125 1.0625,0 2.875,0 2.5938,0 -1.3125,-2.125 c -0.3254,-0.6118 -0.5938,-1.74395 -0.5938,-3.34375 l 0,-13.4062502 0,-0.0312 c -0.043,-2.25177 -0.4476,-4.33281 -1.2187,-6.25 l 0.031,0 c -0.7369,-1.88518 -1.7835,-3.45711004 -3.0625,-4.71875 -0.01,-0.006 0.01,-0.0258 0,-0.0312 -1.2336,-1.2293 -2.6454,-2.20626 -4.2188003,-2.875 -0.01,-0.004 -0.022,0.004 -0.031,0 -1.5685,-0.69012 -3.2314,-1.06247 -4.9375,-1.0625 z m 35.9375003,0.0625 c -2.6429,3e-5 -5.2294,1.01158 -7.6562,2.875 -0.897,0.68074 -1.5856,1.4556 -2.2813,2.21874996 -0.065,-1.20220996 -0.1635,-2.39346996 -0.5,-3.56249996 l -0.3125,-1.0625 -1.0937,0 -2.875,0 -2.2188,0.0312 0.9375,2.09375 c 0.3357,0.64466 0.5938,1.76558 0.5938,3.34374996 l 0,39.81250024 0,1.46875 1.4375,0 2.7187,0 1.4375,0 0,-1.46875 0,-16.34375 c 0.6577,0.71364 1.291,1.43888 2.125,2.0625 l 0,0.0312 c 2.4308,1.77971 5.0275,2.71875 7.6875,2.71875 2.8083,0 5.4716,-0.80707 7.8125,-2.375 2.3271,-1.55872 4.1681,-3.6799 5.4688,-6.28125 l -0.031,0 c 1.3203,-2.6189 2,-5.46028 2,-8.46875 0,-2.9899702 -0.6784,-5.8064302 -2,-8.4062502 l 0.031,0 c -1.3007,-2.60132004 -3.1417,-4.72251 -5.4688,-6.28125 -2.341,-1.59011 -5.0004,-2.40622 -7.8125,-2.40625 z m 36.4688,0 c -2.6428,3e-5 -5.2295,1.0116 -7.6563,2.875 -0.9094,0.69019 -1.6101,1.4751 -2.3125,2.24999996 -0.063,-1.21275996 -0.1606,-2.41466996 -0.5,-3.59374996 l -0.2812,-1.0625 -1.0938,0 -2.875,0 -2.5625,0.0312 1.2813,2.09375 c 0.3358,0.64466 0.5625,1.76558 0.5625,3.34374996 l 0,39.81250024 0,1.46875 1.4687,0 2.6875,0 1.4375,0 0,-1.46875 0,-16.34375 c 0.6577,0.71364 1.291,1.43888 2.125,2.0625 l 0,0.0312 0.031,0 c 2.4308,1.77971 5.0276,2.71875 7.6875,2.71875 2.8083,0 5.4404,-0.80706 7.7813,-2.375 2.3271,-1.55872 4.1681,-3.6799 5.4687,-6.28125 1.3202,-2.61886 1.9688,-5.46024 1.9688,-8.46875 0,-2.9900002 -0.6473,-5.8064802 -1.9688,-8.4062502 -1.3006,-2.60132004 -3.1416,-4.72251 -5.4687,-6.28125 -2.3411,-1.59012 -4.9692,-2.40622 -7.7813,-2.40625 z m -96.125004,0.46875 0,31.8125002 c 0,1.62156 -0.469,2.88209 -1.4375,4.03125 -0.9499,1.16278 -1.8674,1.625 -3.0625,1.625 l -1.4375,0 0,1.4375 0,2.3125 0,1.4375 1.4375,0 c 2.7642,-10e-6 5.2807,-1.149 7.1875,-3.25 0.01,-0.007 -0.01,-0.0245 0,-0.0312 1.8942,-2.08452 2.9062,-4.679 2.9062,-7.5625 l 0,-30.3437502 0,-1.46875 -1.4375,0 c -1.3862,3e-5 -2.7707,5e-5 -4.1562,0 z m 117.156204,0 0,1.46875 0,30.4062502 0,1.4375 1.4375,0 c 1.396003,0.007 2.791603,0.0148 4.187503,0 -0.078,-10.60834 -0.031,-21.2347302 -0.031,-31.8437502 l 0,-1.46875 -1.4375,0 -2.718703,0 -1.4375,0 z m 8.500003,0 1.7813,2.28125 9.1562,13.4375002 -10.4375,15.3125 -1.5625,2.28125 2.75,0 3.1563,0 0.75,0 0.4375,-0.625 8.2187,-12 8.1563,12 0.4375,0.625 0.7812,0 3.0938,0 2.75,0 -1.5313,-2.28125 -10.4375,-15.3125 9.2188,-13.4375002 1.5625,-2.28125 -2.75,0 -3.1563,0 -0.75,0 -0.4375,0.625 -7.0625,10.21875 -7,-10.1875 -0.4375,-0.65625 -0.75,0 -2.9375,0 z M 39.967267,0.22639676 c 2.637,2e-5 4.8219,1.00664004 6.8438,3.28125004 2.0106,2.26185 3,4.92224 3,8.2187502 0,3.27489 -0.9822,5.94404 -3,8.25 -2.023,2.29401 -4.2099,3.31251 -6.8438,3.3125 -2.6791,10e-6 -4.8441,-1.02461 -6.8437,-3.3125 -1.995,-2.28247 -2.9688,-4.95076 -2.9688,-8.25 0,-3.2992002 0.9768,-5.9576302 2.9688,-8.2187502 1.9984,-2.26847 4.1614,-3.28123004 6.8437,-3.28125004 z m 36.4688,0 c 2.6371,2e-5 4.7905,1.00664004 6.8125,3.28125004 2.0105,2.26185 3,4.92224 3,8.2187502 0,3.27489 -0.9823,5.94404 -3,8.25 -2.0231,2.29401 -4.1786,3.31251 -6.8125,3.3125 -2.6791,10e-6 -4.8753,-1.02461 -6.875,-3.3125 -1.9949,-2.28247 -2.9688,-4.95076 -2.9688,-8.25 0,-3.2992002 0.9769,-5.9576302 2.9688,-8.2187502 1.9985,-2.26847 4.1928,-3.28123004 6.875,-3.28125004 z m -64.5313,12.71875024 0,3.84375 c -0.9592,1.65552 -2.3396003,3.16923 -4.2500003,4.53125 -1.9602,1.39759 -3.8691,2.03125 -5.8437,2.03125 -1.96129999,0 -3.2134,-0.47806 -4.0938,-1.34375 -0.9888,-0.97234 -1.375,-1.87009 -1.375,-2.90625 0,-0.60589 0.1129,-1.12329 0.3125,-1.59375 0.2324,-0.49945 0.4959,-0.9022 0.8125,-1.21875 l 0.031,0 0,-0.0312 c 0.323,-0.3371 0.7789,-0.6778 1.4063,-1 l 0.031,0 c 0.70280001,-0.36988 1.35070001,-0.6631 1.96870001,-0.875 l 0.031,0 c 0.59439999,-0.22077 1.38369999,-0.4378 2.31249999,-0.625 0.012,-0.002 0.019,0.002 0.031,0 0.9733,-0.19005 1.8383,-0.33334 2.5313,-0.40625 l 0.031,0 c 0.7085,-0.0932 1.6026,-0.16018 2.6562,-0.21875 l 0.031,0 c 1.0882,-0.0791 1.9152003,-0.13737 2.5000003,-0.15625 0.2362,-0.007 0.5963,-0.0239 0.875,-0.0312 z"
       id="path3732"
       inkscape:connector-curvature="0"
       sodipodi:nodetypes="ccccccccccccccccccccccccsccccccscccccccsccccccscccccccccccccccccccccccccccccscccccsccccccccscccccccccccccccccccscccccccccssccsccccccccccccccsccccccccccsscscccccscsccccsccscccccccccccscccccccccccccccccccccccccccccccccccsscscsccccscscscccccscsccccccccccccccccc" />
  </g>
</svg>
